<svg width="60" height="60" viewBox="0 0 24 24" xmlns="http://www.w3.org/2000/svg" fill="none" stroke="#00e0ff" stroke-width="1.5" stroke-linecap="round" stroke-linejoin="round">
    <path d="M12 2.69l.34 1.16a2 2 0 0 0 1.85 1.29l1.23.08a2 2 0 0 1 1.93 1.93l.08 1.23a2 2 0 0 0 1.29 1.85l1.16.34a2 2 0 0 1 0 3.78l-1.16.34a2 2 0 0 0 -1.29 1.85l-.08 1.23a2 2 0 0 1 -1.93 1.93l-1.23.08a2 2 0 0 0 -1.85 1.29l-.34 1.16a2 2 0 0 1 -3.78 0l-.34 -1.16a2 2 0 0 0 -1.85 -1.29l-1.23 -.08a2 2 0 0 1 -1.93 -1.93l-.08 -1.23a2 2 0 0 0 -1.29 -1.85l-1.16 -.34a2 2 0 0 1 0 -3.78l1.16 -.34a2 2 0 0 0 1.29 -1.85l.08 -1.23a2 2 0 0 1 1.93 -1.93l1.23 -.08a2 2 0 0 0 1.85 -1.29l.34 -1.16a2 2 0 0 1 3.78 0z"/>
    <path d="M8 12h8"/>
    <path d="M12 8v8"/>
</svg>